<?xml version="1.0" encoding="UTF-8" standalone="no"?>
<!-- Created with Inkscape (http://www.inkscape.org/) -->

<svg
   xmlns:dc="http://purl.org/dc/elements/1.1/"
   xmlns:cc="http://creativecommons.org/ns#"
   xmlns:rdf="http://www.w3.org/1999/02/22-rdf-syntax-ns#"
   xmlns:svg="http://www.w3.org/2000/svg"
   xmlns="http://www.w3.org/2000/svg"
   xmlns:sodipodi="http://sodipodi.sourceforge.net/DTD/sodipodi-0.dtd"
   xmlns:inkscape="http://www.inkscape.org/namespaces/inkscape"
   width="500"
   height="500"
   id="svg2"
   version="1.1"
   inkscape:version="0.48.3.1 r9886"
   sodipodi:docname="rcontool.svg"
   inkscape:export-filename="/home/gavin/rcontool/rcontool-large.png"
   inkscape:export-xdpi="23.040001"
   inkscape:export-ydpi="23.040001">
  <defs
     id="defs4">
    <filter
       id="filter4389"
       style="color-interpolation-filters:sRGB;"
       inkscape:label="Drop Shadow">
      <feFlood
         id="feFlood4391"
         flood-opacity="0.5"
         flood-color="rgb(0,0,0)"
         result="flood" />
      <feComposite
         id="feComposite4393"
         in2="SourceGraphic"
         in="flood"
         operator="in"
         result="composite1" />
      <feGaussianBlur
         id="feGaussianBlur4395"
         in="composite"
         stdDeviation="5"
         result="blur" />
      <feOffset
         id="feOffset4397"
         dx="0"
         dy="10"
         result="offset" />
      <feComposite
         id="feComposite4399"
         in2="offset"
         in="SourceGraphic"
         operator="over"
         result="composite2" />
    </filter>
  </defs>
  <sodipodi:namedview
     id="base"
     pagecolor="#ffffff"
     bordercolor="#666666"
     borderopacity="1.0"
     inkscape:pageopacity="0.0"
     inkscape:pageshadow="2"
     inkscape:zoom="0.70710678"
     inkscape:cx="294.48491"
     inkscape:cy="145.28876"
     inkscape:document-units="px"
     inkscape:current-layer="g4411"
     showgrid="false"
     showguides="true"
     inkscape:guide-bbox="true"
     inkscape:window-width="1615"
     inkscape:window-height="1026"
     inkscape:window-x="65"
     inkscape:window-y="24"
     inkscape:window-maximized="1">
    <sodipodi:guide
       orientation="1,0"
       position="-325.26912,565.68543"
       id="guide4161" />
  </sodipodi:namedview>
  <metadata
     id="metadata7">
    <rdf:RDF>
      <cc:Work
         rdf:about="">
        <dc:format>image/svg+xml</dc:format>
        <dc:type
           rdf:resource="http://purl.org/dc/dcmitype/StillImage" />
        <dc:title></dc:title>
      </cc:Work>
    </rdf:RDF>
  </metadata>
  <g
     inkscape:label="Layer 1"
     inkscape:groupmode="layer"
     id="layer1"
     transform="translate(0,-552.36218)">
    <g
       id="g4188"
       transform="matrix(1.5437858,0,0,1.5437858,-219.47247,170.95346)">
      <g
         id="g4411"
         transform="matrix(0.9432618,0,0,0.9432618,17.264371,23.153619)">
        <path
           inkscape:connector-curvature="0"
           style="fill:#f26622;filter:url(#filter4389)"
           d="m 281.15625,271.21875 c -18.869,0 -36.65075,3.5315 -53.34375,10.6875 -16.692,7.125 -31.2085,16.9305 -43.5625,29.4375 -12.367,12.477 -22.20275,27.00975 -29.46875,43.59375 -7.265,16.552 -10.875,34.238 -10.875,53.125 0,18.856 3.61,36.57325 10.875,53.15625 7.266,16.554 17.10175,31.0845 29.46875,43.5625 12.354,12.508 26.8715,22.31375 43.5625,29.46875 16.693,7.127 34.47375,10.6875 53.34375,10.6875 14.532,0 28.5575,-2.3 42.0625,-6.875 13.502,-4.604 25.87575,-10.972 37.09375,-19.125 11.217,-8.153 21.084,-17.8315 29.625,-29.0625 8.526,-11.2 15.0975,-23.56075 19.6875,-37.09375 l 50.46875,-118.5 c 1.275,-3.58 2.363,-6.95225 3.25,-10.15625 0.886,-3.173 1.3125,-6.51575 1.3125,-10.09375 0,-6.132 -1.10625,-11.80125 -3.40625,-17.03125 -2.287,-5.226 -5.3625,-9.7335 -9.1875,-13.5625 -3.827,-3.825 -8.3505,-6.821 -13.5625,-9 -5.228,-2.174 -10.80425,-3.21875 -16.65625,-3.21875 l -140.6875,0 z m 119.65625,12.9375 16.3125,0 19.53125,49.90625 8.78125,-2.6875 3.375,9.75 -19.53125,5.75 -11.65625,-30.71875 -17.9375,28.46875 -13.28125,0 25.78125,-43.34375 -3.21875,-7.84375 -8.15625,0 0,-9.28125 z m -119.65625,11.875 c 15.293,0 29.70075,2.9615 43.21875,8.8125 13.504,5.851 25.27975,13.8575 35.34375,24.0625 10.065,10.206 17.97875,22.124 23.71875,35.75 5.741,13.628 8.59375,28.09825 8.59375,43.40625 0,15.277 -2.85375,29.6835 -8.59375,43.1875 -208.60022,0.43263 0.68199,-1.90045 -205.5,0 -5.865,-13.504 -8.8125,-27.9115 -8.8125,-43.1875 0,-15.306 2.9475,-29.77825 8.8125,-43.40625 5.864,-13.626 13.88975,-25.543 24.09375,-35.75 10.19,-10.205 22.09175,-18.2125 35.71875,-24.0625 13.644,-5.851 28.11425,-8.8125 43.40625,-8.8125 z m -18.875,172.90625 c 4.68748,3e-5 8.34372,1.34899 11,4.03125 2.65622,2.68231 3.99997,6.39846 4,11.125 -3e-5,4.71355 -1.34378,8.41146 -4,11.09375 -2.65628,2.68229 -6.31252,4 -11,4 -4.67449,0 -8.36199,-1.31771 -11.03125,-4 -2.65625,-2.68229 -3.96875,-6.3802 -3.96875,-11.09375 0,-4.72654 1.3125,-8.44269 3.96875,-11.125 2.66926,-2.68226 6.35676,-4.03122 11.03125,-4.03125 z m 33.96875,0 c 4.68748,3e-5 8.37497,1.34899 11.03125,4.03125 2.65622,2.68231 3.96872,6.39846 3.96875,11.125 -3e-5,4.71355 -1.31253,8.41146 -3.96875,11.09375 -2.65628,2.68229 -6.34377,4 -11.03125,4 -4.67449,0 -8.33074,-1.31771 -11,-4 -2.65625,-2.68229 -4,-6.3802 -4,-11.09375 0,-4.72654 1.34375,-8.44269 4,-11.125 2.66926,-2.68226 6.32551,-4.03122 11,-4.03125 z m -78.03125,0.53125 26.875,0 0,5.6875 -9.6875,0 0,23.46875 -7.5,0 0,-23.46875 -9.6875,0 0,-5.6875 z m 98.6875,0 7.53125,0 0,23.46875 13.1875,0 0,5.6875 -20.71875,0 0,-29.15625 z m -54.625,4.9375 c -2.29168,2e-5 -4.08074,0.83857 -5.34375,2.53125 -1.26303,1.69273 -1.90626,4.08335 -1.90625,7.15625 -1e-5,3.05991 0.64322,5.4323 1.90625,7.125 1.26301,1.69271 3.05207,2.53125 5.34375,2.53125 2.30467,0 4.08071,-0.83854 5.34375,-2.53125 1.263,-1.6927 1.87498,-4.06509 1.875,-7.125 -2e-5,-3.0729 -0.612,-5.46352 -1.875,-7.15625 -1.26304,-1.69268 -3.03908,-2.53123 -5.34375,-2.53125 z m 33.96875,0 c -2.29168,2e-5 -4.08074,0.83857 -5.34375,2.53125 -1.26303,1.69273 -1.87501,4.08335 -1.875,7.15625 -10e-6,3.05991 0.61197,5.4323 1.875,7.125 1.26301,1.69271 3.05207,2.53125 5.34375,2.53125 2.30467,0 4.08071,-0.83854 5.34375,-2.53125 1.263,-1.6927 1.90623,-4.06509 1.90625,-7.125 -2e-5,-3.0729 -0.64325,-5.46352 -1.90625,-7.15625 -1.26304,-1.69268 -3.03908,-2.53123 -5.34375,-2.53125 z"
           id="path3920" />
        <text
           transform="scale(0.95248066,1.0498901)"
           sodipodi:linespacing="125%"
           id="text4148"
           y="422.25439"
           x="181.91496"
           style="font-size:56.47000122px;font-style:normal;font-weight:normal;line-height:125%;letter-spacing:0px;word-spacing:0px;fill:#f26622;fill-opacity:1;stroke:none;font-family:Sans"
           xml:space="preserve"><tspan
             style="font-size:90.35201263px;font-style:normal;font-variant:normal;font-weight:bold;font-stretch:normal;letter-spacing:-8.57983112px;fill:#f26622;fill-opacity:1;stroke:none;font-family:Droid Sans;-inkscape-font-specification:Droid Sans Bold"
             y="422.25439"
             x="181.91496"
             id="tspan4150"
             sodipodi:role="line"
             dx="0 0"
             rotate="0 0 0 0 0"
             dy="0 0">RCON</tspan></text>
        <path
           inkscape:connector-curvature="0"
           id="path4355"
           d="m 435.08957,130.47002 c -4.57162,-12.2425 -8.77654,-22.77291 -9.34428,-23.40092 -0.56774,-0.62801 -7.24674,8.75884 -14.84222,20.85965 l -13.80997,22.00149 -9.01911,0 c -4.96051,0 -9.01911,-0.24252 -9.01911,-0.53895 0,-0.29642 8.59134,-14.97415 19.09188,-32.61718 10.50054,-17.643033 19.09188,-32.493638 19.09188,-33.001344 0,-0.507709 -1.04105,-3.649066 -2.31345,-6.980795 -2.23617,-5.855333 -2.51962,-6.057689 -8.48528,-6.057689 l -6.17183,0 0,-6.363961 0,-6.363961 11.80904,0 11.80904,0 14.84182,37.830213 c 16.21637,41.333787 14.91158,39.454537 25.36268,36.528857 3.44667,-0.96486 3.87913,-0.56951 5.916,5.40838 1.20863,3.54714 1.7627,6.71765 1.23125,7.04559 -1.11285,0.68672 -25.91132,7.94675 -27.06807,7.92448 -0.42254,-0.008 -4.50866,-10.03137 -9.08027,-22.27386 l 0,0 z"
           style="fill:#ffffff;fill-opacity:1;stroke:#ffffff;stroke-opacity:1;stroke-width:2.12030212;stroke-miterlimit:4;stroke-dasharray:none"
           transform="matrix(0.64775826,0,0,0.64775826,142.1651,247.06065)" />
        <path
           transform="matrix(0.64775826,0,0,0.64775826,142.1651,247.06065)"
           inkscape:connector-curvature="0"
           id="path4357"
           d="m 270.16043,365.59781 0,-21.92031 4.94975,0 4.94975,0 0,18.38478 0,18.38477 10.6066,0 c 10.3709,0 10.6066,0.0786 10.6066,3.53554 l 0,3.53553 -15.55635,0 -15.55635,0 0,-21.92031 z"
           style="fill:#ffffff;fill-opacity:1;stroke:#ffffff;stroke-opacity:1;stroke-width:2.12030212;stroke-miterlimit:4;stroke-dasharray:none" />
        <path
           transform="matrix(0.64775826,0,0,0.64775826,142.1651,247.06065)"
           inkscape:connector-curvature="0"
           id="path4359"
           d="m 230.00288,387.5363 c -13.44191,-4.26052 -18.76012,-21.86875 -10.63857,-35.22357 5.33107,-8.76625 21.83606,-11.64153 31.14155,-5.42506 12.53104,8.37128 12.87964,30.18973 0.60356,37.77676 -5.43701,3.36026 -15.32212,4.70528 -21.10654,2.87187 z m 15.86642,-9.10464 c 4.84084,-4.73078 4.51784,-19.35687 -0.55118,-24.95806 -3.3781,-3.73276 -12.05465,-3.66253 -15.48261,0.12531 -3.70772,4.09698 -4.59508,17.21198 -1.48565,21.95757 4.06701,6.20704 12.66603,7.61826 17.51944,2.87518 l 0,0 z"
           style="fill:#ffffff;fill-opacity:1;stroke:#ffffff;stroke-opacity:1;stroke-width:2.12030212;stroke-miterlimit:4;stroke-dasharray:none" />
        <path
           transform="matrix(0.64775826,0,0,0.64775826,142.1651,247.06065)"
           inkscape:connector-curvature="0"
           id="path4361"
           d="m 177.31958,387.4597 c -11.39585,-3.48643 -17.43824,-18.52123 -12.35195,-30.73443 3.72736,-8.95015 8.50809,-12.09813 19.29456,-12.70494 14.056,-0.79074 21.56616,5.41306 23.19425,19.15973 1.0365,8.75166 -2.95102,18.16993 -9.27425,21.90515 -5.17406,3.0564 -14.98415,4.17293 -20.86261,2.37449 l 0,0 z m 13.53537,-7.66312 c 4.48094,-2.31718 5.71894,-5.5632 5.74707,-15.06871 0.0268,-9.07214 -3.93784,-13.9793 -11.2944,-13.9793 -7.58056,0 -11.31371,4.85885 -11.31371,14.72529 0,7.88007 2.57093,12.96533 7.57594,14.9851 4.22751,1.70601 4.78158,1.66649 9.2851,-0.66238 l 0,0 z"
           style="fill:#ffffff;fill-opacity:1;stroke:#ffffff;stroke-opacity:1;stroke-width:2.12030212;stroke-miterlimit:4;stroke-dasharray:none" />
        <path
           transform="matrix(0.64775826,0,0,0.64775826,142.1651,247.06065)"
           inkscape:connector-curvature="0"
           id="path4363"
           d="m 132.98172,369.13334 0,-18.38477 -7.77818,0 c -7.35391,0 -7.77817,-0.19285 -7.77817,-3.53554 l 0,-3.53553 20.5061,0 20.50609,0 0,3.46163 c 0,3.17884 -0.60653,3.49655 -7.42462,3.88908 l -7.42462,0.42746 -0.39581,18.03123 -0.3958,18.03122 -4.9075,0 -4.90749,0 0,-18.38478 z"
           style="fill:#ffffff;fill-opacity:1;stroke:#ffffff;stroke-opacity:1;stroke-width:2.12030212;stroke-miterlimit:4;stroke-dasharray:none" />
      </g>
    </g>
  </g>
</svg>
